<svg xmlns="http://www.w3.org/2000/svg" viewBox="0 0 24 24" role="img" aria-label="Ultrahope Arcana 07 Airy icon">
  <g transform="translate(12 12) scale(1.12) translate(-12 -12)" fill="#fff">
    <rect x="17.988" y="15.857" width="3.091" height="0.81" rx="0.405" transform="rotate(29.501 19.533 16.262)" />
    <rect x="15.603" y="18.552" width="3.09" height="0.81" rx="0.405" transform="rotate(53.501 17.148 18.957)" />
    <rect x="12.72" y="19.556" width="2.09" height="0.81" rx="0.405" transform="rotate(77.513 13.765 19.962)" />
    <rect x="8.729" y="20.076" width="3.09" height="0.81" rx="0.405" transform="rotate(101.499 10.274 20.481)" />
    <rect x="5.429" y="18.641" width="3.09" height="0.81" rx="0.405" transform="rotate(125.49 6.974 19.046)" />
    <rect x="3.929" y="15.734" width="2.09" height="0.81" rx="0.405" transform="rotate(149.521 4.973 16.139)" />
    <rect x="1.856" y="12.575" width="3.09" height="0.81" rx="0.405" transform="rotate(173.496 3.401 12.98)" />
    <rect x="2.201" y="8.993" width="3.09" height="0.81" rx="0.405" transform="rotate(-162.503 3.745 9.398)" />
    <rect x="4.848" y="6.191" width="2.09" height="0.81" rx="0.405" transform="rotate(-138.492 5.893 6.596)" />
    <rect x="6.866" y="3.719" width="3.09" height="0.81" rx="0.405" transform="rotate(-114.508 8.411 4.124)" />
    <rect x="10.379" y="2.94" width="3.09" height="0.81" rx="0.405" transform="rotate(-90.501 11.925 3.345)" />
    <rect x="14.206" y="4.117" width="2.09" height="0.81" rx="0.405" transform="rotate(-66.513 15.252 4.522)" />
    <rect x="16.836" y="5.748" width="3.09" height="0.81" rx="0.405" transform="rotate(-42.508 18.381 6.153)" />
    <rect x="18.663" y="8.848" width="3.09" height="0.81" rx="0.405" transform="rotate(-18.511 20.208 9.253)" />
    <rect x="19.072" y="12.377" width="2.091" height="0.81" rx="0.405" transform="rotate(5.517 20.117 12.781)" />
    <polygon points="13.366,16.924 10.754,14.202 7.076,13.366 9.798,10.754 10.634,7.076 13.246,9.798 16.924,10.634 14.202,13.246" />
  </g>
</svg>
